PathFileType	4	(X/Y/Z)	/Users/niels/Desktop/University/Third Semester/Perception and Action/Exam/Gymnastics Motion Tracking/Code for Gym Tracking/Scripts/Analyzed Data/Start Salto/st_salto_good_id12_1_Sports2D/st_salto_good_id12_1_Sports2D_px_person00.trc
DataRate	CameraRate	NumFrames	NumMarkers	Units	OrigDataRate	OrigDataStartFrame	OrigNumFrames
29.83050847457627	29.83050847457627	12	22	m	29.83050847457627	44	177
Frame#	Time	Hip			RHip			RKnee			RAnkle			RBigToe			RSmallToe			RHeel			LHip			LKnee			LAnkle			LBigToe			LSmallToe			LHeel			Neck			Head			Nose			RShoulder			RElbow			RWrist			LShoulder			LElbow			LWrist		
		X1	Y1	Z1	X2	Y2	Z2	X3	Y3	Z3	X4	Y4	Z4	X5	Y5	Z5	X6	Y6	Z6	X7	Y7	Z7	X8	Y8	Z8	X9	Y9	Z9	X10	Y10	Z10	X11	Y11	Z11	X12	Y12	Z12	X13	Y13	Z13	X14	Y14	Z14	X15	Y15	Z15	X16	Y16	Z16	X17	Y17	Z17	X18	Y18	Z18	X19	Y19	Z19	X20	Y20	Z20	X21	Y21	Z21	X22	Y22	Z22
44	1.475	0.6806447300683826	-0.42311362610328007	0.0	0.6807098232396493	-0.4263978989268633	0.0	0.6431680562452436	-0.5741536608274814	0.0	0.5808807647083871	-0.7059913682806296	0.0	0.6099288794590757	-0.7755921721242792	0.0	0.5963607767233101	-0.772035891824024	0.0	0.5592779661026436	-0.7125319072811473	0.0	0.684201868232987	-0.42920209588472186	0.0	0.6452796069636907	-0.5735573008516193	0.0	0.5826723455209841	-0.6996081908261453	0.0	0.6112764288675755	-0.7671222772017922	0.0	0.6133446520868862	-0.7576132282887981	0.0	0.5578145437562326	-0.7051695789751529	0.0	0.8559368610757578	-0.3246857086878472	0.0	0.9351614256842985	-0.32729262703056466	0.0	0.9045249524619171	-0.3542387622956103	0.0	0.8511491502085415	-0.3237840332029967	0.0	0.8986260147364944	-0.3976278742561682	0.0	0.956791085285782	-0.4464691053587353	0.0	0.8361158917240048	-0.32526772681418403	0.0	0.8775477720793015	-0.4081690927416862	0.0	0.9271089050546709	-0.45374931673450153	0.0
45	1.5085227272727273	0.6902017573630262	-0.40894422679195114	0.0	0.6910494391806015	-0.41203351109102615	0.0	0.6536856896307583	-0.5601515260809535	0.0	0.583134340279432	-0.687004657171506	0.0	0.6076309185028866	-0.7589009977913564	0.0	0.594941906607715	-0.7543142369113927	0.0	0.5605361013258857	-0.6917831596482197	0.0	0.69229088468075	-0.4136906288807471	0.0	0.6537647826074612	-0.5586468212897688	0.0	0.5794126289613518	-0.6765031949615539	0.0	0.6038510184654882	-0.7482815540600688	0.0	0.606018244733699	-0.7384284746705414	0.0	0.5546351050816564	-0.6804226266513383	0.0	0.8717149623812246	-0.3246590982573526	0.0	0.9545656296890095	-0.3338207422393957	0.0	0.9186206440133476	-0.3579097406449942	0.0	0.8689637627570381	-0.3226790916636046	0.0	0.9141521101494708	-0.3951884762723188	0.0	0.96095676854393	-0.45304956144723574	0.0	0.8514065331835453	-0.3227008690650466	0.0	0.8818969427304916	-0.4048244245524259	0.0	0.924345927332253	-0.4610791622025121	0.0
46	1.5420454545454545	0.7005338151649615	-0.39482690450030244	0.0	0.7017660365368991	-0.3976111019981971	0.0	0.6645084390009157	-0.5463581576392348	0.0	0.5855506772446314	-0.668278204951416	0.0	0.6051115736568753	-0.7407106983004191	0.0	0.5934149387227814	-0.7353889420969141	0.0	0.5621173498755432	-0.6720891731057119	0.0	0.7005704395840134	-0.39786394565676547	0.0	0.6630878748863914	-0.5437236187198673	0.0	0.5756692614460764	-0.6513245058029972	0.0	0.5945694044057312	-0.7266182371529278	0.0	0.5967718122741085	-0.7168854232919336	0.0	0.5516006152055968	-0.6534653305689708	0.0	0.8868012178712359	-0.32551480119311044	0.0	0.972564762093128	-0.34145331600955836	0.0	0.9315243318033616	-0.36269803903577263	0.0	0.8857943983962191	-0.32266298788490616	0.0	0.929335937115295	-0.39267754776559394	0.0	0.9633284897006059	-0.45880430785674364	0.0	0.8665513445184831	-0.3210028882294992	0.0	0.8855093847959385	-0.40079282834802227	0.0	0.9219742655458617	-0.4666208646769329	0.0
47	1.575568181818182	0.7115335533798978	-0.3811967620558434	0.0	0.7127615755105332	-0.38380376151251333	0.0	0.6748123503968014	-0.5332444569893101	0.0	0.5880418677016613	-0.6507670466495551	0.0	0.602579137815476	-0.7217709294540794	0.0	0.5918706274455062	-0.7161802662505443	0.0	0.5642320785815143	-0.6544742717776362	0.0	0.7090768206171246	-0.3825360355550747	0.0	0.672466223868466	-0.5293211846617761	0.0	0.5717370794385553	-0.6249725023215839	0.0	0.5834707115341252	-0.7024947855116186	0.0	0.5858276680392764	-0.6932733907798198	0.0	0.5486808923796331	-0.6249188216031942	0.0	0.9013065451672213	-0.3272090324083656	0.0	0.9881871170339495	-0.3493495016540234	0.0	0.9430612330399817	-0.3681730828565914	0.0	0.9015227484275435	-0.3237790437738331	0.0	0.9433157338554241	-0.3905859278449204	0.0	0.9640049631568933	-0.4638955854906467	0.0	0.8812778603217706	-0.32017314702433153	0.0	0.8889695889298497	-0.3968550796452876	0.0	0.9207945252533376	-0.4699283573554276	0.0
48	1.6090909090909091	0.7230396473465415	-0.3682327093816766	0.0	0.7241207333138899	-0.37094467757672306	0.0	0.6842521963585025	-0.5209168167127379	0.0	0.5904077416938921	-0.634644712070135	0.0	0.6004842186243666	-0.7028019125331152	0.0	0.5904989021014608	-0.6974207802000576	0.0	0.5667533574204014	-0.6388070218452697	0.0	0.718117899079987	-0.3681506314411964	0.0	0.6812707734850452	-0.5154300383455296	0.0	0.5683416907775912	-0.598136108236343	0.0	0.571433682594287	-0.6760670914499001	0.0	0.5740701615458247	-0.6676161444136681	0.0	0.5461046858845279	-0.5955562549322729	0.0	0.9152622785159138	-0.32969659424059117	0.0	1.0013417977811931	-0.3574004259406021	0.0	0.9532712726629047	-0.3738964880182215	0.0	0.9164579160782227	-0.3260812375198374	0.0	0.9556533175401719	-0.3895847981481178	0.0	0.9634574866145292	-0.46836677301828644	0.0	0.8953755207902783	-0.32025410415577965	0.0	0.8930519071937564	-0.3937654089272912	0.0	0.9208483766485673	-0.4707366729001266	0.0
49	1.6426136363636363	0.7350773864283112	-0.3557533621562613	0.0	0.7361530889894056	-0.35896051514038374	0.0	0.6930820085309969	-0.5090909823663123	0.0	0.5925003488706565	-0.6192223017235878	0.0	0.5993941290531845	-0.6841811103353103	0.0	0.5896518344410164	-0.6793056009659179	0.0	0.5693732921658317	-0.6238945036072044	0.0	0.7281631215599911	-0.354620802884503	0.0	0.6891824715875201	-0.5014482711721229	0.0	0.5663866098209499	-0.5708883304951805	0.0	0.5596823312636738	-0.6470451882510119	0.0	0.5625010019045581	-0.639537813439664	0.0	0.544431462036594	-0.5659217315625761	0.0	0.9289320034663562	-0.3329510379347125	0.0	1.0126302206377025	-0.3661797188899186	0.0	0.9623492422840288	-0.3796604295327779	0.0	0.9314289424679297	-0.32981540479608157	0.0	0.9665458268625174	-0.3902371080047361	0.0	0.9623827838393177	-0.47217427806476114	0.0	0.9089846604730345	-0.32146156546198174	0.0	0.8984293004908602	-0.39168446898147075	0.0	0.921498544969851	-0.4693063418196159	0.0
50	1.6761363636363638	0.7478545187977079	-0.34340997718003546	0.0	0.7491474254632944	-0.3475809562047363	0.0	0.7017917359426801	-0.497272239887302	0.0	0.5943906619440444	-0.6033977805935135	0.0	0.5996688001818569	-0.6657674248563977	0.0	0.5897169379721967	-0.6614035209627321	0.0	0.571922761326664	-0.6082070163594763	0.0	0.7395901937604542	-0.3416291175538045	0.0	0.6962748807543706	-0.4867061815155513	0.0	0.566616228496904	-0.5427920079098687	0.0	0.5490874882750368	-0.6148820714547755	0.0	0.551778228468351	-0.6084957175619133	0.0	0.5444239795370545	-0.5360656391840378	0.0	0.9429216711670948	-0.337060574111291	0.0	1.0229038471356977	-0.37641897968361704	0.0	0.9706895799225764	-0.38571258802417435	0.0	0.9473657501171636	-0.335301653352534	0.0	0.9764760730011284	-0.39275508257447356	0.0	0.9613699729321113	-0.4751757305005397	0.0	0.9226422980565745	-0.3241044375230915	0.0	0.9053158189441068	-0.3902346058447223	0.0	0.9217281447415666	-0.4664365174379025	0.0
51	1.709659090909091	0.7614325579315689	-0.3311433025998214	0.0	0.7630178001044935	-0.3367080426948686	0.0	0.7106201061258396	-0.4851368195113165	0.0	0.5963608135591982	-0.5864242845106873	0.0	0.6011423371671339	-0.6472113480961362	0.0	0.5908230636051677	-0.6431153842936883	0.0	0.5744913014168763	-0.5908024216069916	0.0	0.7524141983701915	-0.3291079668849093	0.0	0.7028040177377811	-0.471202568552257	0.0	0.5694434455705376	-0.5136969545729332	0.0	0.54019888793357	-0.579774743009969	0.0	0.5425491429662482	-0.5746428067360652	0.0	0.5468516082996716	-0.5059844620616741	0.0	0.9576012453699898	-0.3421538394462158	0.0	1.0327755151259277	-0.38834614507441745	0.0	0.9787301063020126	-0.3925768477310674	0.0	0.964405788180059	-0.34253012506013153	0.0	0.9856342475882713	-0.3969082948034407	0.0	0.9607572233196944	-0.47704050466545783	0.0	0.9368385923327623	-0.32830125903758606	0.0	0.913358729413708	-0.38924793312683126	0.0	0.9206482189772002	-0.4632316989368562	0.0
52	1.7431818181818182	0.7754941694354914	-0.3193409877004693	0.0	0.7772539593361256	-0.3265616593372882	0.0	0.7194153111786417	-0.472831489383637	0.0	0.5987407772751333	-0.5683822987584215	0.0	0.6032011828870558	-0.628505674907314	0.0	0.5927341715148545	-0.6243214960457372	0.0	0.5772902617719324	-0.571782748509262	0.0	0.7662011061166805	-0.3173281262464805	0.0	0.708996315222819	-0.45575990653587023	0.0	0.5749861629773336	-0.484265712498095	0.0	0.5339069373613524	-0.5434642271828626	0.0	0.5361059886728828	-0.5394348897927257	0.0	0.5523477538385194	-0.47615788255986186	0.0	0.9725482094529586	-0.3481920553537828	0.0	1.0422072588905067	-0.40147469728044965	0.0	0.9864700780343774	-0.40053824367258295	0.0	0.9815537865694536	-0.3508782449527792	0.0	0.9938013688093896	-0.4020454705051954	0.0	0.9607074011843091	-0.47731220883777153	0.0	0.9515026167112669	-0.333767085452555	0.0	0.9218695292569695	-0.3889311474225977	0.0	0.9183634600888821	-0.46039882728776466	0.0
53	1.7767045454545456	0.7895493258761943	-0.30844481166536236	0.0	0.791306392892372	-0.3174083755244728	0.0	0.7279299026501526	-0.46080468772894484	0.0	0.6017761793733456	-0.5498255079555809	0.0	0.6052415876655401	-0.6099933856294711	0.0	0.5950276073798582	-0.6053977567711536	0.0	0.5805160982396796	-0.5517789045729572	0.0	0.7803230843266484	-0.3065575104580936	0.0	0.7151756950442067	-0.441352647744589	0.0	0.5831446822233738	-0.4554154307226539	0.0	0.5315895820286901	-0.508368122727672	0.0	0.5341743519046632	-0.5048440581252733	0.0	0.5612043793298146	-0.4471823167876007	0.0	0.9867936475736847	-0.354840313713467	0.0	1.0506206778550653	-0.4148792478585814	0.0	0.9933646517268594	-0.4092572479769166	0.0	0.9973733833765743	-0.35923360353984374	0.0	1.0009283356062175	-0.4071540910315454	0.0	0.961246197994472	-0.4756889158387056	0.0	0.9660531774400616	-0.33986373502184575	0.0	0.9303756863834792	-0.3892276735254907	0.0	0.9164595054796855	-0.4575498935384499	0.0
54	1.8102272727272728	0.8032399867213842	-0.2986052596106425	0.0	0.8048960056853748	-0.30926191313771567	0.0	0.7361078054179269	-0.449381273747131	0.0	0.6055821733759353	-0.5311550832399302	0.0	0.6070412430994474	-0.5919110147461606	0.0	0.5973658505314481	-0.5866965774334807	0.0	0.5843580478566435	-0.5311841865451055	0.0	0.7942931115982935	-0.29688341722176725	0.0	0.7218532474049769	-0.4284362399243315	0.0	0.5935080307974758	-0.42762596828407945	0.0	0.5342218160498282	-0.47602515301527837	0.0	0.537708022478644	-0.4721653601137831	0.0	0.5730850788967894	-0.41916666309641476	0.0	0.9994134727007238	-0.36150707084553846	0.0	1.057481192169516	-0.42754129703583893	0.0	0.998879341962762	-0.41780756537547414	0.0	1.0107951759376874	-0.36646515850580436	0.0	1.007519303681486	-0.4111251178966101	0.0	0.9622413694047478	-0.47226252098846855	0.0	0.9798045111564774	-0.34589258238689286	0.0	0.9389081222473408	-0.38963198288317274	0.0	0.916989717442931	-0.45367322206638644	0.0
55	1.84375	0.8164532365006086	-0.28972310740011814	0.0	0.8180076944149794	-0.30187440575844315	0.0	0.7440808816941588	-0.4385588527080345	0.0	0.6101388289395483	-0.5124520917839894	0.0	0.6088123846318696	-0.5741742307808304	0.0	0.5997279361644691	-0.5682723070617667	0.0	0.5890205421447988	-0.5100945012174505	0.0	0.8079229422585498	-0.28826964447550013	0.0	0.7293939612052212	-0.41687498317042265	0.0	0.6052838266960283	-0.4009784040424874	0.0	0.5414628316542595	-0.4467980934722003	0.0	0.5460565705189887	-0.441885476855219	0.0	0.5869633532063994	-0.3918545220653181	0.0	1.0098210288881542	-0.3675891871905891	0.0	1.0625225165495773	-0.43887309903844224	0.0	1.0027923917067731	-0.4251761031510808	0.0	1.0213999248015644	-0.3719965131254227	0.0	1.0141085481238024	-0.4133802203055438	0.0	0.9634287065498865	-0.46749448154457224	0.0	0.9921853233945257	-0.3514311471593169	0.0	0.9476656722083227	-0.3896494872130788	0.0	0.9207470933216767	-0.4482482343833844	0.0
